<mxfile host="app.diagrams.net" agent="Mozilla/5.0 (Windows NT 10.0; Win64; x64) AppleWebKit/537.36 (KHTML, like Gecko) Chrome/139.0.0.0 Safari/537.36" version="28.1.2" pages="2">
  <diagram name="Azure-Architecture" id="azure-arch-nat">
    <mxGraphModel dx="1426" dy="777" grid="1" gridSize="10" guides="1" tooltips="1" connect="1" arrows="1" fold="1" page="1" pageScale="1" pageWidth="1169" pageHeight="827" math="0" shadow="0">
      <root>
        <mxCell id="0" />
        <mxCell id="1" parent="0" />
        <mxCell id="5_n1CUY6lJ1YUa3NUbUP-18" value="" style="rounded=0;whiteSpace=wrap;html=1;" vertex="1" parent="1">
          <mxGeometry x="240" y="40" width="800" height="720" as="geometry" />
        </mxCell>
        <mxCell id="5_n1CUY6lJ1YUa3NUbUP-29" value="" style="group" vertex="1" connectable="0" parent="1">
          <mxGeometry x="290" y="80" width="730" height="650" as="geometry" />
        </mxCell>
        <mxCell id="5_n1CUY6lJ1YUa3NUbUP-16" value="" style="group" vertex="1" connectable="0" parent="5_n1CUY6lJ1YUa3NUbUP-29">
          <mxGeometry width="730" height="650" as="geometry" />
        </mxCell>
        <mxCell id="5_n1CUY6lJ1YUa3NUbUP-19" value="" style="edgeStyle=orthogonalEdgeStyle;rounded=0;orthogonalLoop=1;jettySize=auto;html=1;" edge="1" parent="5_n1CUY6lJ1YUa3NUbUP-16" source="internet" target="frontdoor">
          <mxGeometry relative="1" as="geometry" />
        </mxCell>
        <mxCell id="internet" value="Internet" style="ellipse;whiteSpace=wrap;html=1;fillColor=#ffcccc;strokeColor=#d79b9b;" parent="5_n1CUY6lJ1YUa3NUbUP-16" vertex="1">
          <mxGeometry x="320" width="80" height="50" as="geometry" />
        </mxCell>
        <mxCell id="5_n1CUY6lJ1YUa3NUbUP-22" style="edgeStyle=orthogonalEdgeStyle;rounded=0;orthogonalLoop=1;jettySize=auto;html=1;exitX=0.5;exitY=1;exitDx=0;exitDy=0;" edge="1" parent="5_n1CUY6lJ1YUa3NUbUP-16" source="frontdoor">
          <mxGeometry relative="1" as="geometry">
            <mxPoint x="360" y="210" as="targetPoint" />
          </mxGeometry>
        </mxCell>
        <mxCell id="frontdoor" value="Azure Front Door&#xa;(CDN + WAF)" style="rounded=1;whiteSpace=wrap;html=1;fillColor=#d5e8d4;strokeColor=#82b366;" parent="5_n1CUY6lJ1YUa3NUbUP-16" vertex="1">
          <mxGeometry x="300" y="110" width="120" height="40" as="geometry" />
        </mxCell>
        <mxCell id="5_n1CUY6lJ1YUa3NUbUP-1" value="" style="group" vertex="1" connectable="0" parent="5_n1CUY6lJ1YUa3NUbUP-16">
          <mxGeometry x="580" y="210" width="150" height="280" as="geometry" />
        </mxCell>
        <mxCell id="g6P2y_LT8vWo2ZSiPqG--3" value="&lt;div style=&quot;&quot;&gt;&lt;span style=&quot;background-color: transparent; color: light-dark(rgb(0, 0, 0), rgb(255, 255, 255));&quot;&gt;Azure PaaS Services&lt;/span&gt;&lt;/div&gt;" style="whiteSpace=wrap;html=1;fillColor=#e1d5e7;strokeColor=#9673a6;rounded=1;align=center;verticalAlign=top;" vertex="1" parent="5_n1CUY6lJ1YUa3NUbUP-1">
          <mxGeometry width="150" height="280" as="geometry" />
        </mxCell>
        <mxCell id="keyvault" value="Key Vault" style="rounded=1;whiteSpace=wrap;html=1;fillColor=#d5e8d4;strokeColor=#82b366;" parent="5_n1CUY6lJ1YUa3NUbUP-1" vertex="1">
          <mxGeometry x="44.11764705882353" y="39.375" width="61.764705882352935" height="26.25" as="geometry" />
        </mxCell>
        <mxCell id="sqldb" value="Azure SQL DB" style="rounded=1;whiteSpace=wrap;html=1;fillColor=#d5e8d4;strokeColor=#82b366;" parent="5_n1CUY6lJ1YUa3NUbUP-1" vertex="1">
          <mxGeometry x="44.11764705882353" y="83.125" width="61.764705882352935" height="26.25" as="geometry" />
        </mxCell>
        <mxCell id="cosmosdb" value="Cosmos DB" style="rounded=1;whiteSpace=wrap;html=1;fillColor=#d5e8d4;strokeColor=#82b366;" parent="5_n1CUY6lJ1YUa3NUbUP-1" vertex="1">
          <mxGeometry x="44.11764705882353" y="126.875" width="61.764705882352935" height="26.25" as="geometry" />
        </mxCell>
        <mxCell id="openai" value="Azure OpenAI" style="rounded=1;whiteSpace=wrap;html=1;fillColor=#d5e8d4;strokeColor=#82b366;" parent="5_n1CUY6lJ1YUa3NUbUP-1" vertex="1">
          <mxGeometry x="44.11764705882353" y="170.625" width="61.764705882352935" height="26.25" as="geometry" />
        </mxCell>
        <mxCell id="storage" value="Blob Storage" style="rounded=1;whiteSpace=wrap;html=1;fillColor=#d5e8d4;strokeColor=#82b366;" parent="5_n1CUY6lJ1YUa3NUbUP-1" vertex="1">
          <mxGeometry x="44.11764705882353" y="214.375" width="61.764705882352935" height="26.25" as="geometry" />
        </mxCell>
        <mxCell id="5_n1CUY6lJ1YUa3NUbUP-2" value="" style="group" vertex="1" connectable="0" parent="5_n1CUY6lJ1YUa3NUbUP-16">
          <mxGeometry x="190" y="210" width="350" height="280" as="geometry" />
        </mxCell>
        <mxCell id="spoke-vnet" value="Spoke VNet" style="rounded=0;whiteSpace=wrap;html=1;fillColor=#dae8fc;strokeColor=#6c8ebf;verticalAlign=top;" parent="5_n1CUY6lJ1YUa3NUbUP-2" vertex="1">
          <mxGeometry x="-10" width="360" height="280" as="geometry" />
        </mxCell>
        <mxCell id="4xUAXUAMc5dbKpFcdqkS-9" value="" style="edgeStyle=orthogonalEdgeStyle;rounded=0;orthogonalLoop=1;jettySize=auto;html=1;" edge="1" parent="5_n1CUY6lJ1YUa3NUbUP-2" source="appgw" target="4xUAXUAMc5dbKpFcdqkS-7">
          <mxGeometry relative="1" as="geometry" />
        </mxCell>
        <mxCell id="appgw" value="Application Gateway&#xa;v2 (WAF)" style="rounded=1;whiteSpace=wrap;html=1;fillColor=#d5e8d4;strokeColor=#82b366;" parent="5_n1CUY6lJ1YUa3NUbUP-2" vertex="1">
          <mxGeometry x="113.75" y="32.666666666666664" width="122.5" height="28" as="geometry" />
        </mxCell>
        <mxCell id="webapp" value="App Service&#xa;Web Apps" style="rounded=1;whiteSpace=wrap;html=1;fillColor=#e1d5e7;strokeColor=#9673a6;" parent="5_n1CUY6lJ1YUa3NUbUP-2" vertex="1">
          <mxGeometry x="52.49999999999999" y="154" width="70" height="46.666666666666664" as="geometry" />
        </mxCell>
        <mxCell id="conn3" value="" style="endArrow=classic;html=1;rounded=0;exitX=0.25;exitY=1;exitDx=0;exitDy=0;entryX=0.5;entryY=0;entryDx=0;entryDy=0;" parent="5_n1CUY6lJ1YUa3NUbUP-2" source="4xUAXUAMc5dbKpFcdqkS-7" target="webapp" edge="1">
          <mxGeometry width="50" height="50" relative="1" as="geometry">
            <mxPoint x="8.75" y="116.66666666666667" as="sourcePoint" />
            <mxPoint x="52.49999999999999" y="70" as="targetPoint" />
          </mxGeometry>
        </mxCell>
        <mxCell id="conn4" value="" style="endArrow=classic;html=1;rounded=0;exitX=0.67;exitY=1.06;exitDx=0;exitDy=0;entryX=0.5;entryY=0;entryDx=0;entryDy=0;exitPerimeter=0;" parent="5_n1CUY6lJ1YUa3NUbUP-2" source="4xUAXUAMc5dbKpFcdqkS-7" target="apiapp" edge="1">
          <mxGeometry width="50" height="50" relative="1" as="geometry">
            <mxPoint x="96.24999999999999" y="116.66666666666667" as="sourcePoint" />
            <mxPoint x="140" y="70" as="targetPoint" />
          </mxGeometry>
        </mxCell>
        <mxCell id="apiapp" value="App Service&#xa;API Apps" style="rounded=1;whiteSpace=wrap;html=1;fillColor=#e1d5e7;strokeColor=#9673a6;" parent="5_n1CUY6lJ1YUa3NUbUP-2" vertex="1">
          <mxGeometry x="236.25" y="154" width="70" height="46.666666666666664" as="geometry" />
        </mxCell>
        <mxCell id="4xUAXUAMc5dbKpFcdqkS-7" value="API M" style="rounded=1;whiteSpace=wrap;html=1;fillColor=#d5e8d4;strokeColor=#82b366;" vertex="1" parent="5_n1CUY6lJ1YUa3NUbUP-2">
          <mxGeometry x="109.37499999999999" y="93.33333333333333" width="131.25" height="23.333333333333332" as="geometry" />
        </mxCell>
        <mxCell id="5_n1CUY6lJ1YUa3NUbUP-5" value="" style="group" vertex="1" connectable="0" parent="5_n1CUY6lJ1YUa3NUbUP-16">
          <mxGeometry y="270" width="140" height="160" as="geometry" />
        </mxCell>
        <mxCell id="hub-vnet" value="Hub VNet" style="rounded=0;whiteSpace=wrap;html=1;fillColor=#fff2cc;strokeColor=#d6b656;verticalAlign=top;" parent="5_n1CUY6lJ1YUa3NUbUP-5" vertex="1">
          <mxGeometry width="140" height="160" as="geometry" />
        </mxCell>
        <mxCell id="firewall" value="Azure Firewall" style="rounded=1;whiteSpace=wrap;html=1;fillColor=#f8cecc;strokeColor=#b85450;" parent="5_n1CUY6lJ1YUa3NUbUP-5" vertex="1">
          <mxGeometry x="30" y="32" width="80" height="42.666666666666664" as="geometry" />
        </mxCell>
        <mxCell id="bastion" value="Azure Bastion" style="rounded=1;whiteSpace=wrap;html=1;fillColor=#e1d5e7;strokeColor=#9673a6;" parent="5_n1CUY6lJ1YUa3NUbUP-5" vertex="1">
          <mxGeometry x="30" y="90.66666666666667" width="80" height="42.666666666666664" as="geometry" />
        </mxCell>
        <mxCell id="5_n1CUY6lJ1YUa3NUbUP-15" value="" style="group" vertex="1" connectable="0" parent="5_n1CUY6lJ1YUa3NUbUP-16">
          <mxGeometry x="180" y="530" width="360" height="120" as="geometry" />
        </mxCell>
        <mxCell id="4xUAXUAMc5dbKpFcdqkS-2" value="External Services" style="rounded=0;whiteSpace=wrap;html=1;fillColor=#f5f5f5;strokeColor=#666666;verticalAlign=top;" vertex="1" parent="5_n1CUY6lJ1YUa3NUbUP-15">
          <mxGeometry width="360" height="120" as="geometry" />
        </mxCell>
        <mxCell id="external-apis" value="External APIs&#xa;&amp; Services" style="ellipse;whiteSpace=wrap;html=1;fillColor=#ffcccc;strokeColor=#d79b9b;" parent="5_n1CUY6lJ1YUa3NUbUP-15" vertex="1">
          <mxGeometry x="13.5" y="24" width="90" height="72" as="geometry" />
        </mxCell>
        <mxCell id="4xUAXUAMc5dbKpFcdqkS-3" value="External APIs&#xa;&amp; Services" style="ellipse;whiteSpace=wrap;html=1;fillColor=#ffcccc;strokeColor=#d79b9b;" vertex="1" parent="5_n1CUY6lJ1YUa3NUbUP-15">
          <mxGeometry x="243" y="24" width="90" height="72" as="geometry" />
        </mxCell>
        <mxCell id="4xUAXUAMc5dbKpFcdqkS-4" value="External APIs&#xa;&amp; Services" style="ellipse;whiteSpace=wrap;html=1;fillColor=#ffcccc;strokeColor=#d79b9b;" vertex="1" parent="5_n1CUY6lJ1YUa3NUbUP-15">
          <mxGeometry x="126" y="24" width="90" height="72" as="geometry" />
        </mxCell>
        <mxCell id="5_n1CUY6lJ1YUa3NUbUP-26" value="" style="endArrow=classic;html=1;rounded=0;exitX=0.679;exitY=-0.019;exitDx=0;exitDy=0;exitPerimeter=0;" edge="1" parent="5_n1CUY6lJ1YUa3NUbUP-16" source="hub-vnet">
          <mxGeometry width="50" height="50" relative="1" as="geometry">
            <mxPoint x="110" y="320" as="sourcePoint" />
            <mxPoint x="300" y="130" as="targetPoint" />
            <Array as="points">
              <mxPoint x="95" y="130" />
            </Array>
          </mxGeometry>
        </mxCell>
        <mxCell id="5_n1CUY6lJ1YUa3NUbUP-27" value="" style="endArrow=classic;html=1;rounded=0;" edge="1" parent="5_n1CUY6lJ1YUa3NUbUP-16" source="spoke-vnet">
          <mxGeometry width="50" height="50" relative="1" as="geometry">
            <mxPoint x="530" y="400" as="sourcePoint" />
            <mxPoint x="580" y="350" as="targetPoint" />
          </mxGeometry>
        </mxCell>
        <mxCell id="5_n1CUY6lJ1YUa3NUbUP-28" value="" style="endArrow=classic;html=1;rounded=0;entryX=0.469;entryY=0.017;entryDx=0;entryDy=0;entryPerimeter=0;" edge="1" parent="5_n1CUY6lJ1YUa3NUbUP-16" source="spoke-vnet" target="4xUAXUAMc5dbKpFcdqkS-2">
          <mxGeometry width="50" height="50" relative="1" as="geometry">
            <mxPoint x="90" y="550" as="sourcePoint" />
            <mxPoint x="140" y="500" as="targetPoint" />
          </mxGeometry>
        </mxCell>
        <mxCell id="5_n1CUY6lJ1YUa3NUbUP-25" value="" style="endArrow=classic;html=1;rounded=0;exitX=0.113;exitY=0.74;exitDx=0;exitDy=0;exitPerimeter=0;" edge="1" parent="5_n1CUY6lJ1YUa3NUbUP-29" source="internet">
          <mxGeometry width="50" height="50" relative="1" as="geometry">
            <mxPoint x="-190" y="190" as="sourcePoint" />
            <mxPoint x="70" y="270" as="targetPoint" />
            <Array as="points">
              <mxPoint x="70" y="40" />
            </Array>
          </mxGeometry>
        </mxCell>
      </root>
    </mxGraphModel>
  </diagram>
  <diagram id="yR-LmKYV3_lx3xePENKo" name="Arch">
    <mxGraphModel dx="1426" dy="777" grid="1" gridSize="10" guides="1" tooltips="1" connect="1" arrows="1" fold="1" page="1" pageScale="1" pageWidth="850" pageHeight="1100" math="0" shadow="0">
      <root>
        <mxCell id="0" />
        <mxCell id="1" parent="0" />
        <mxCell id="TT9epLNbPauhg83ztJ05-13" value="" style="rounded=0;whiteSpace=wrap;html=1;fillColor=#cdeb8b;strokeColor=#36393d;" vertex="1" parent="1">
          <mxGeometry x="30" y="150" width="620" height="690" as="geometry" />
        </mxCell>
        <mxCell id="TT9epLNbPauhg83ztJ05-6" value="" style="edgeStyle=orthogonalEdgeStyle;rounded=0;orthogonalLoop=1;jettySize=auto;html=1;" edge="1" parent="1" source="TT9epLNbPauhg83ztJ05-5" target="TT9epLNbPauhg83ztJ05-1">
          <mxGeometry relative="1" as="geometry" />
        </mxCell>
        <mxCell id="TT9epLNbPauhg83ztJ05-9" value="" style="edgeStyle=orthogonalEdgeStyle;rounded=0;orthogonalLoop=1;jettySize=auto;html=1;" edge="1" parent="1" source="TT9epLNbPauhg83ztJ05-5" target="UCQDPK5VGKP5Bu9Tr2mB-5">
          <mxGeometry relative="1" as="geometry" />
        </mxCell>
        <mxCell id="TT9epLNbPauhg83ztJ05-5" value="" style="rounded=0;whiteSpace=wrap;html=1;fillColor=#f5f5f5;gradientColor=#b3b3b3;strokeColor=#666666;" vertex="1" parent="1">
          <mxGeometry x="40" y="300" width="600" height="320" as="geometry" />
        </mxCell>
        <mxCell id="TT9epLNbPauhg83ztJ05-12" value="" style="edgeStyle=orthogonalEdgeStyle;rounded=0;orthogonalLoop=1;jettySize=auto;html=1;" edge="1" parent="1" source="BHn0iRKyawYdJE3hoVFp-1" target="0X53fQsIJJir2ZJC-e21-1">
          <mxGeometry relative="1" as="geometry" />
        </mxCell>
        <mxCell id="BHn0iRKyawYdJE3hoVFp-1" value="Browser / Device" style="rounded=0;whiteSpace=wrap;html=1;fillColor=#dae8fc;strokeColor=#6c8ebf;verticalAlign=top;" vertex="1" parent="1">
          <mxGeometry x="40" y="40" width="600" height="80" as="geometry" />
        </mxCell>
        <mxCell id="TT9epLNbPauhg83ztJ05-3" value="" style="edgeStyle=orthogonalEdgeStyle;rounded=0;orthogonalLoop=1;jettySize=auto;html=1;" edge="1" parent="1" source="0X53fQsIJJir2ZJC-e21-1" target="TT9epLNbPauhg83ztJ05-1">
          <mxGeometry relative="1" as="geometry" />
        </mxCell>
        <mxCell id="1e3Qcl6_FeXNnZW6moyq-2" value="" style="edgeStyle=orthogonalEdgeStyle;rounded=0;orthogonalLoop=1;jettySize=auto;html=1;" edge="1" parent="1" source="0X53fQsIJJir2ZJC-e21-1" target="TT9epLNbPauhg83ztJ05-5">
          <mxGeometry relative="1" as="geometry" />
        </mxCell>
        <mxCell id="0X53fQsIJJir2ZJC-e21-1" value="Azure Network Infrastructure" style="rounded=0;whiteSpace=wrap;html=1;fillColor=#fff2cc;strokeColor=#d6b656;verticalAlign=top;" vertex="1" parent="1">
          <mxGeometry x="40" y="200" width="600" height="80" as="geometry" />
        </mxCell>
        <mxCell id="UCQDPK5VGKP5Bu9Tr2mB-1" value="Web Apps" style="rounded=0;whiteSpace=wrap;html=1;fillColor=#b0e3e6;strokeColor=#0e8088;verticalAlign=top;" vertex="1" parent="1">
          <mxGeometry x="80" y="320" width="240" height="280" as="geometry" />
        </mxCell>
        <mxCell id="UCQDPK5VGKP5Bu9Tr2mB-2" value="Domain Services" style="rounded=0;whiteSpace=wrap;html=1;fillColor=#b0e3e6;strokeColor=#0e8088;verticalAlign=top;" vertex="1" parent="1">
          <mxGeometry x="390" y="320" width="240" height="280" as="geometry" />
        </mxCell>
        <mxCell id="TT9epLNbPauhg83ztJ05-7" value="" style="edgeStyle=orthogonalEdgeStyle;rounded=0;orthogonalLoop=1;jettySize=auto;html=1;" edge="1" parent="1" source="UCQDPK5VGKP5Bu9Tr2mB-5" target="TT9epLNbPauhg83ztJ05-1">
          <mxGeometry relative="1" as="geometry" />
        </mxCell>
        <mxCell id="TT9epLNbPauhg83ztJ05-10" value="" style="edgeStyle=orthogonalEdgeStyle;rounded=0;orthogonalLoop=1;jettySize=auto;html=1;" edge="1" parent="1" source="UCQDPK5VGKP5Bu9Tr2mB-5" target="UCQDPK5VGKP5Bu9Tr2mB-6">
          <mxGeometry relative="1" as="geometry" />
        </mxCell>
        <mxCell id="UCQDPK5VGKP5Bu9Tr2mB-5" value="Shared Services" style="rounded=0;whiteSpace=wrap;html=1;fillColor=#e1d5e7;strokeColor=#9673a6;verticalAlign=top;" vertex="1" parent="1">
          <mxGeometry x="40" y="640" width="600" height="80" as="geometry" />
        </mxCell>
        <mxCell id="TT9epLNbPauhg83ztJ05-8" value="" style="edgeStyle=orthogonalEdgeStyle;rounded=0;orthogonalLoop=1;jettySize=auto;html=1;" edge="1" parent="1" source="UCQDPK5VGKP5Bu9Tr2mB-6" target="TT9epLNbPauhg83ztJ05-1">
          <mxGeometry relative="1" as="geometry" />
        </mxCell>
        <mxCell id="UCQDPK5VGKP5Bu9Tr2mB-6" value="Azure Paas" style="rounded=0;whiteSpace=wrap;html=1;fillColor=#d5e8d4;strokeColor=#82b366;verticalAlign=top;" vertex="1" parent="1">
          <mxGeometry x="40" y="750" width="600" height="80" as="geometry" />
        </mxCell>
        <mxCell id="TT9epLNbPauhg83ztJ05-1" value="Observability" style="rounded=0;whiteSpace=wrap;html=1;fillColor=#bac8d3;strokeColor=#23445d;verticalAlign=top;" vertex="1" parent="1">
          <mxGeometry x="680" y="150" width="120" height="690" as="geometry" />
        </mxCell>
        <mxCell id="1e3Qcl6_FeXNnZW6moyq-1" value="External Systems" style="rounded=0;whiteSpace=wrap;html=1;fillColor=#ffcc99;strokeColor=#36393d;verticalAlign=top;" vertex="1" parent="1">
          <mxGeometry x="40" y="850" width="600" height="80" as="geometry" />
        </mxCell>
        <mxCell id="1e3Qcl6_FeXNnZW6moyq-5" value="User App" style="rounded=0;whiteSpace=wrap;html=1;" vertex="1" parent="1">
          <mxGeometry x="90" y="360" width="80" height="40" as="geometry" />
        </mxCell>
        <mxCell id="1e3Qcl6_FeXNnZW6moyq-6" value="Business App" style="rounded=0;whiteSpace=wrap;html=1;" vertex="1" parent="1">
          <mxGeometry x="210" y="360" width="80" height="40" as="geometry" />
        </mxCell>
        <mxCell id="1e3Qcl6_FeXNnZW6moyq-7" value="Admin App" style="rounded=0;whiteSpace=wrap;html=1;" vertex="1" parent="1">
          <mxGeometry x="90" y="420" width="80" height="40" as="geometry" />
        </mxCell>
        <mxCell id="1e3Qcl6_FeXNnZW6moyq-8" value="Partner App" style="rounded=0;whiteSpace=wrap;html=1;" vertex="1" parent="1">
          <mxGeometry x="210" y="420" width="80" height="40" as="geometry" />
        </mxCell>
        <mxCell id="1e3Qcl6_FeXNnZW6moyq-9" value="Support App" style="rounded=0;whiteSpace=wrap;html=1;" vertex="1" parent="1">
          <mxGeometry x="90" y="480" width="80" height="40" as="geometry" />
        </mxCell>
        <mxCell id="1e3Qcl6_FeXNnZW6moyq-10" value="Customer&amp;nbsp;&lt;div&gt;Success&lt;/div&gt;" style="rounded=0;whiteSpace=wrap;html=1;" vertex="1" parent="1">
          <mxGeometry x="210" y="480" width="80" height="40" as="geometry" />
        </mxCell>
        <mxCell id="1e3Qcl6_FeXNnZW6moyq-12" value="Trusocial" style="rounded=0;whiteSpace=wrap;html=1;" vertex="1" parent="1">
          <mxGeometry x="410" y="360" width="80" height="40" as="geometry" />
        </mxCell>
        <mxCell id="1e3Qcl6_FeXNnZW6moyq-13" value="TruChat" style="rounded=0;whiteSpace=wrap;html=1;" vertex="1" parent="1">
          <mxGeometry x="520" y="360" width="80" height="40" as="geometry" />
        </mxCell>
        <mxCell id="1e3Qcl6_FeXNnZW6moyq-15" value="TruLead" style="rounded=0;whiteSpace=wrap;html=1;" vertex="1" parent="1">
          <mxGeometry x="410" y="420" width="80" height="40" as="geometry" />
        </mxCell>
        <mxCell id="1e3Qcl6_FeXNnZW6moyq-16" value="TruVoice" style="rounded=0;whiteSpace=wrap;html=1;" vertex="1" parent="1">
          <mxGeometry x="520" y="420" width="80" height="40" as="geometry" />
        </mxCell>
        <mxCell id="1e3Qcl6_FeXNnZW6moyq-17" value="User Management" style="rounded=0;whiteSpace=wrap;html=1;" vertex="1" parent="1">
          <mxGeometry x="60" y="660" width="80" height="40" as="geometry" />
        </mxCell>
        <mxCell id="1e3Qcl6_FeXNnZW6moyq-18" value="LLM Interface" style="rounded=0;whiteSpace=wrap;html=1;" vertex="1" parent="1">
          <mxGeometry x="160" y="660" width="80" height="40" as="geometry" />
        </mxCell>
        <mxCell id="1e3Qcl6_FeXNnZW6moyq-19" value="Subscription Management" style="rounded=0;whiteSpace=wrap;html=1;" vertex="1" parent="1">
          <mxGeometry x="260" y="660" width="80" height="40" as="geometry" />
        </mxCell>
        <mxCell id="1e3Qcl6_FeXNnZW6moyq-20" value="Integrations" style="rounded=0;whiteSpace=wrap;html=1;" vertex="1" parent="1">
          <mxGeometry x="360" y="660" width="80" height="40" as="geometry" />
        </mxCell>
        <mxCell id="1e3Qcl6_FeXNnZW6moyq-21" value="Payment Interface" style="rounded=0;whiteSpace=wrap;html=1;" vertex="1" parent="1">
          <mxGeometry x="450" y="660" width="80" height="40" as="geometry" />
        </mxCell>
        <mxCell id="1e3Qcl6_FeXNnZW6moyq-22" value="Reports" style="rounded=0;whiteSpace=wrap;html=1;" vertex="1" parent="1">
          <mxGeometry x="550" y="660" width="80" height="40" as="geometry" />
        </mxCell>
        <mxCell id="1e3Qcl6_FeXNnZW6moyq-23" value="" style="image;aspect=fixed;html=1;points=[];align=center;fontSize=12;image=img/lib/azure2/ai_machine_learning/AI_Studio.svg;" vertex="1" parent="1">
          <mxGeometry x="60" y="765" width="47.06" height="50" as="geometry" />
        </mxCell>
        <mxCell id="1e3Qcl6_FeXNnZW6moyq-24" value="" style="image;aspect=fixed;html=1;points=[];align=center;fontSize=12;image=img/lib/azure2/analytics/Azure_Synapse_Analytics.svg;" vertex="1" parent="1">
          <mxGeometry x="140" y="756" width="60" height="69" as="geometry" />
        </mxCell>
        <mxCell id="1e3Qcl6_FeXNnZW6moyq-25" value="" style="image;aspect=fixed;html=1;points=[];align=center;fontSize=12;image=img/lib/azure2/analytics/Event_Hubs.svg;" vertex="1" parent="1">
          <mxGeometry x="230" y="765" width="67" height="60" as="geometry" />
        </mxCell>
        <mxCell id="1e3Qcl6_FeXNnZW6moyq-26" value="" style="image;aspect=fixed;html=1;points=[];align=center;fontSize=12;image=img/lib/azure2/databases/SQL_Database.svg;" vertex="1" parent="1">
          <mxGeometry x="392" y="763" width="48" height="64" as="geometry" />
        </mxCell>
        <mxCell id="1e3Qcl6_FeXNnZW6moyq-27" value="" style="image;aspect=fixed;html=1;points=[];align=center;fontSize=12;image=img/lib/azure2/databases/Azure_Synapse_Analytics.svg;" vertex="1" parent="1">
          <mxGeometry x="470" y="761" width="60" height="69" as="geometry" />
        </mxCell>
        <mxCell id="1e3Qcl6_FeXNnZW6moyq-28" value="" style="image;aspect=fixed;html=1;points=[];align=center;fontSize=12;image=img/lib/azure2/databases/Azure_Cosmos_DB.svg;" vertex="1" parent="1">
          <mxGeometry x="558" y="766" width="64" height="64" as="geometry" />
        </mxCell>
        <mxCell id="1e3Qcl6_FeXNnZW6moyq-29" value="" style="image;aspect=fixed;html=1;points=[];align=center;fontSize=12;image=img/lib/azure2/devops/Application_Insights.svg;" vertex="1" parent="1">
          <mxGeometry x="718" y="357" width="44" height="63" as="geometry" />
        </mxCell>
        <mxCell id="1e3Qcl6_FeXNnZW6moyq-30" value="" style="image;aspect=fixed;html=1;points=[];align=center;fontSize=12;image=img/lib/azure2/management_governance/Monitor.svg;" vertex="1" parent="1">
          <mxGeometry x="708" y="720" width="64" height="64" as="geometry" />
        </mxCell>
        <mxCell id="1e3Qcl6_FeXNnZW6moyq-31" value="" style="image;aspect=fixed;html=1;points=[];align=center;fontSize=12;image=img/lib/azure2/security/Conditional_Access.svg;" vertex="1" parent="1">
          <mxGeometry x="321.29" y="774.5" width="38.71" height="47" as="geometry" />
        </mxCell>
        <mxCell id="R-tBNeZd93MlCWi03v7K-1" value="Stripe" style="rounded=0;whiteSpace=wrap;html=1;" vertex="1" parent="1">
          <mxGeometry x="80" y="880" width="80" height="40" as="geometry" />
        </mxCell>
        <mxCell id="R-tBNeZd93MlCWi03v7K-2" value="Finance" style="rounded=0;whiteSpace=wrap;html=1;" vertex="1" parent="1">
          <mxGeometry x="190" y="880" width="80" height="40" as="geometry" />
        </mxCell>
        <mxCell id="R-tBNeZd93MlCWi03v7K-3" value="CRM" style="rounded=0;whiteSpace=wrap;html=1;" vertex="1" parent="1">
          <mxGeometry x="300.64" y="880" width="80" height="40" as="geometry" />
        </mxCell>
        <mxCell id="R-tBNeZd93MlCWi03v7K-4" value="Notifications" style="rounded=0;whiteSpace=wrap;html=1;" vertex="1" parent="1">
          <mxGeometry x="410" y="880" width="80" height="40" as="geometry" />
        </mxCell>
        <mxCell id="R-tBNeZd93MlCWi03v7K-5" value="MCP" style="rounded=0;whiteSpace=wrap;html=1;" vertex="1" parent="1">
          <mxGeometry x="520" y="880" width="80" height="40" as="geometry" />
        </mxCell>
        <mxCell id="R-tBNeZd93MlCWi03v7K-6" value="TruCRM" style="rounded=0;whiteSpace=wrap;html=1;" vertex="1" parent="1">
          <mxGeometry x="470" y="480" width="80" height="40" as="geometry" />
        </mxCell>
      </root>
    </mxGraphModel>
  </diagram>
</mxfile>
